<?xml version="1.0" standalone="no"?>
<!DOCTYPE svg PUBLIC "-//W3C//DTD SVG 20010904//EN"
 "http://www.w3.org/TR/2001/REC-SVG-20010904/DTD/svg10.dtd">
<svg version="1.0" xmlns="http://www.w3.org/2000/svg"
 width="320.000000pt" height="320.000000pt" viewBox="0 0 320.000000 320.000000"
 preserveAspectRatio="xMidYMid meet">
<metadata>
Created by potrace 1.14, written by Peter Selinger 2001-2017
</metadata>
<g transform="translate(0.000000,320.000000) scale(0.100000,-0.100000)"
fill="#000000" stroke="none">
<path d="M1219 2790 c-204 -26 -421 -126 -564 -262 l-50 -48 -302 0 c-203 0
-303 -3 -303 -10 0 -7 94 -10 286 -9 157 0 288 -1 290 -4 3 -2 -5 -15 -16 -28
-12 -13 -40 -52 -64 -86 -24 -34 -47 -59 -51 -55 -5 4 -5 2 -1 -5 9 -16 -14
-64 -27 -56 -6 3 -7 1 -4 -4 7 -11 -16 -77 -24 -69 -2 2 -5 -5 -6 -17 -1 -12
-11 -54 -22 -94 -32 -116 -43 -248 -29 -361 6 -53 11 -112 11 -129 -1 -18 2
-33 7 -33 5 0 16 -21 23 -47 8 -27 22 -66 31 -88 13 -33 13 -37 1 -21 -8 11
-15 26 -15 33 0 7 -4 13 -10 13 -5 0 -10 14 -10 31 0 18 -4 28 -10 24 -6 -3
-7 -17 -4 -30 3 -12 1 -26 -5 -29 -6 -4 -11 -12 -11 -18 0 -6 7 -5 17 3 15 13
16 12 11 -8 -4 -13 -2 -23 4 -23 6 0 19 -10 29 -22 13 -14 19 -17 19 -7 1 15
29 -30 29 -46 0 -5 -6 1 -14 15 -9 15 -14 19 -15 10 0 -13 -1 -13 -10 0 -7 12
-12 12 -22 2 -6 -6 -8 -12 -3 -12 4 0 0 -9 -9 -19 -17 -19 -17 -21 3 -42 21
-22 21 -22 21 -2 0 11 8 27 18 34 15 12 15 12 5 -1 -6 -8 -13 -28 -15 -45 -2
-25 -7 -30 -28 -28 -41 3 -54 -5 -40 -22 10 -12 9 -15 -4 -15 -10 0 -16 -9
-17 -22 -1 -18 -3 -17 -8 7 -4 17 -13 41 -20 54 -11 19 -11 25 0 32 22 14 29
11 29 -11 0 -11 5 -20 10 -20 12 0 12 0 -1 38 -6 17 -20 32 -32 36 -20 5 -20
6 -2 26 17 19 17 21 0 40 -10 11 -25 20 -33 20 -12 0 -12 -4 3 -20 18 -20 18
-21 -3 -43 l-22 -21 0 53 c0 30 -3 51 -7 47 -4 -4 -6 -27 -4 -51 1 -27 -2 -45
-8 -45 -6 0 -11 -18 -11 -40 0 -31 -4 -40 -17 -40 -14 0 -14 -2 2 -20 14 -16
16 -23 7 -32 -18 -18 -14 -35 10 -43 22 -8 22 -8 -4 -12 -17 -3 -25 -9 -22
-17 3 -8 -1 -16 -9 -19 -11 -4 -13 0 -10 14 4 15 0 19 -18 19 -13 0 -31 -5
-39 -10 -12 -8 -11 -10 8 -10 12 0 22 -4 22 -10 0 -5 -9 -10 -20 -10 -22 0
-27 -15 -7 -24 6 -3 -4 -4 -23 -1 -29 4 -31 3 -12 -5 27 -12 29 -24 2 -15 -11
3 -20 3 -20 -2 0 -5 -13 -14 -30 -20 l-30 -11 0 -486 0 -486 415 0 415 0 5 23
c9 37 131 583 212 942 41 187 77 342 79 344 2 2 63 -11 136 -29 155 -37 1126
-275 1597 -391 178 -43 328 -79 335 -78 19 1 -35 15 -499 129 -247 61 -485
120 -528 131 l-77 21 39 47 c100 120 176 284 212 456 19 86 16 303 -5 398 -32
149 -113 315 -207 428 l-38 46 47 -4 c95 -8 123 -34 148 -138 6 -24 8 -26 11
-10 16 76 35 114 68 129 18 9 41 16 52 16 10 0 24 4 31 9 10 6 2 11 -24 16
-79 14 -99 35 -122 125 l-9 35 -11 -40 c-7 -22 -12 -45 -12 -51 0 -34 -84 -74
-154 -74 -36 0 -48 6 -81 41 -79 81 -220 168 -345 213 -140 51 -332 74 -471
56z m1130 -293 c16 -9 37 -17 48 -17 10 0 -1 -9 -23 -19 -45 -21 -74 -54 -74
-86 0 -13 -8 -5 -22 24 -16 32 -32 48 -62 62 -29 13 -35 19 -20 19 29 0 69 33
84 71 l13 31 14 -34 c7 -19 26 -42 42 -51z m-1859 -1281 c0 -3 -9 2 -20 11
-11 10 -20 24 -20 32 0 8 8 3 20 -12 11 -14 20 -28 20 -31z m-220 34 c0 -5 -7
-10 -15 -10 -8 0 -15 5 -15 10 0 6 7 10 15 10 8 0 15 -4 15 -10z m168 -35 c-1
-22 -6 -35 -15 -35 -15 0 -17 16 -3 25 6 3 10 15 10 26 0 10 2 19 5 19 2 0 4
-16 3 -35z m-178 -35 c-6 -11 -13 -20 -15 -20 -3 0 -5 9 -5 20 0 11 7 20 15
20 13 0 14 -4 5 -20z m255 -20 c10 -11 14 -20 9 -20 -5 0 -15 9 -22 20 -7 11
-11 20 -9 20 2 0 12 -9 22 -20z m-225 -44 c0 -11 -19 -15 -25 -6 -3 5 1 10 9
10 9 0 16 -2 16 -4z m40 -10 c0 -2 -9 -6 -20 -9 -11 -3 -18 -1 -14 4 5 9 34
13 34 5z m77 -2 c-3 -3 -12 -4 -19 -1 -8 3 -5 6 6 6 11 1 17 -2 13 -5z m-147
-26 c-12 -5 -25 -6 -28 -3 -3 3 0 5 7 5 7 0 10 4 7 9 -4 5 4 7 16 3 l22 -5
-24 -9z m107 16 c-3 -3 -12 -4 -19 -1 -8 3 -5 6 6 6 11 1 17 -2 13 -5z m-62
-24 c-27 -12 -43 -12 -25 0 8 5 22 9 30 9 10 0 8 -3 -5 -9z"/>
<path d="M331 2004 c0 -11 3 -14 6 -6 3 7 2 16 -1 19 -3 4 -6 -2 -5 -13z"/>
<path d="M312 1860 c0 -14 2 -19 5 -12 2 6 2 18 0 25 -3 6 -5 1 -5 -13z"/>
<path d="M309 1685 c-2 -16 0 -38 6 -48 8 -14 6 -21 -9 -33 -17 -12 -18 -14
-3 -14 24 0 24 -57 0 -63 -14 -4 -13 -5 4 -6 16 -1 20 -6 17 -23 -4 -22 -4
-22 6 -3 8 15 9 9 4 -25 -3 -25 -8 -54 -10 -65 -4 -16 -3 -17 5 -5 6 8 11 26
11 40 0 15 5 31 12 38 9 9 7 16 -6 31 -10 11 -16 28 -14 38 3 10 0 52 -7 93
-9 55 -13 67 -16 45z"/>
<path d="M240 1560 c0 -5 7 -10 15 -10 8 0 15 5 15 10 0 6 -7 10 -15 10 -8 0
-15 -4 -15 -10z"/>
<path d="M88 1353 c7 -3 16 -2 19 1 4 3 -2 6 -13 5 -11 0 -14 -3 -6 -6z"/>
<path d="M132 1328 c6 -18 28 -21 28 -4 0 9 -7 16 -16 16 -9 0 -14 -5 -12 -12z"/>
<path d="M320 1296 c0 -9 5 -16 10 -16 6 0 10 4 10 9 0 6 -4 13 -10 16 -5 3
-10 -1 -10 -9z"/>
<path d="M140 1250 c0 -5 5 -10 10 -10 6 0 10 5 10 10 0 6 -4 10 -10 10 -5 0
-10 -4 -10 -10z"/>
<path d="M1203 1158 c0 -7 -15 -74 -32 -148 -87 -369 -111 -484 -104 -490 10
-10 634 -152 640 -146 3 2 20 69 38 148 88 370 115 491 111 496 -5 4 -631 151
-647 152 -3 0 -6 -6 -6 -12z"/>
<path d="M5 1030 c-7 -12 19 -24 37 -17 7 3 2 6 -12 7 -23 1 -23 2 -5 10 16 7
17 9 3 9 -9 1 -20 -4 -23 -9z"/>
<path d="M8 993 c7 -3 16 -2 19 1 4 3 -2 6 -13 5 -11 0 -14 -3 -6 -6z"/>
<path d="M1024 395 c-3 -20 -5 -37 -3 -39 2 -2 83 -22 179 -46 184 -44 529
-127 765 -185 563 -137 499 -125 683 -124 106 0 156 4 137 9 -16 4 -147 36
-290 70 -235 57 -550 133 -1211 294 -127 31 -236 56 -242 56 -6 0 -14 -16 -18
-35z"/>
<path d="M981 224 c-6 -21 -9 -39 -7 -41 4 -4 207 -55 431 -108 110 -26 223
-53 252 -61 35 -10 104 -14 220 -13 l168 1 -75 19 c-41 10 -271 66 -510 124
-239 58 -443 108 -452 111 -13 4 -19 -4 -27 -32z"/>
<path d="M945 59 c-4 -19 -3 -35 4 -42 8 -8 74 -13 199 -14 l187 -2 -175 44
c-96 25 -183 45 -192 45 -10 0 -19 -11 -23 -31z"/>
</g>
</svg>
